<?xml version="1.0" encoding="UTF-8" standalone="no"?>
<!DOCTYPE svg PUBLIC "-//W3C//DTD SVG 1.1//EN"
 "http://www.w3.org/Graphics/SVG/1.1/DTD/svg11.dtd">
<!-- Generated by graphviz version 2.40.1 (20161225.0304)
 -->
<!-- Title: dependencies Pages: 1 -->
<svg width="4478pt" height="349pt"
 viewBox="0.00 0.00 4478.00 349.00" xmlns="http://www.w3.org/2000/svg" xmlns:xlink="http://www.w3.org/1999/xlink">
<g id="graph0" class="graph" transform="scale(1 1) rotate(0) translate(4 345)">
<title>dependencies</title>
<polygon fill="#ffffff" stroke="transparent" points="-4,4 -4,-345 4474,-345 4474,4 -4,4"/>
<text text-anchor="start" x="2214.0091" y="-42.4" font-family="sans-serif" font-weight="bold" font-size="14.00" fill="#000000">Legend</text>
<polygon fill="#ffffb3" stroke="transparent" points="2001,-10 2001,-30 2021,-30 2021,-10 2001,-10"/>
<text text-anchor="start" x="2024.629" y="-15.4" font-family="sans-serif" font-size="14.00" fill="#000000"> &#160;Declarations</text>
<polygon fill="#8dd3c7" stroke="transparent" points="2114,-10 2114,-30 2134,-30 2134,-10 2114,-10"/>
<text text-anchor="start" x="2137.7251" y="-15.4" font-family="sans-serif" font-size="14.00" fill="#000000"> &#160;Module</text>
<polygon fill="#80b1d3" stroke="transparent" points="2200,-10 2200,-30 2220,-30 2220,-10 2200,-10"/>
<text text-anchor="start" x="2223.7812" y="-15.4" font-family="sans-serif" font-size="14.00" fill="#000000"> &#160;Bootstrap</text>
<polygon fill="#fdb462" stroke="transparent" points="2297,-10 2297,-30 2317,-30 2317,-10 2297,-10"/>
<text text-anchor="start" x="2320.6732" y="-15.4" font-family="sans-serif" font-size="14.00" fill="#000000"> &#160;Providers</text>
<polygon fill="#fb8072" stroke="transparent" points="2393,-10 2393,-30 2413,-30 2413,-10 2393,-10"/>
<text text-anchor="start" x="2416.7258" y="-15.4" font-family="sans-serif" font-size="14.00" fill="#000000"> &#160;Exports</text>
<g id="clust1" class="cluster">
<title>cluster_AppModule</title>
<polygon fill="none" stroke="#000000" stroke-dasharray="1,5" points="8,-70 8,-333 4462,-333 4462,-70 8,-70"/>
</g>
<g id="clust2" class="cluster">
<title>cluster_AppModule_declarations</title>
<polygon fill="none" stroke="#000000" points="16,-143 16,-195 4454,-195 4454,-143 16,-143"/>
</g>
<g id="clust3" class="cluster">
<title>cluster_AppModule_AppComponent_providers</title>
<polygon fill="none" stroke="#000000" points="4330,-78 4330,-130 4454,-130 4454,-78 4330,-78"/>
</g>
<g id="clust31" class="cluster">
<title>cluster_AppModule_exports</title>
<polygon fill="none" stroke="#000000" points="1904,-273 1904,-325 2214,-325 2214,-273 1904,-273"/>
</g>
<g id="clust32" class="cluster">
<title>cluster_AppModule_bootstrap</title>
<polygon fill="none" stroke="#000000" points="2222,-273 2222,-325 2346,-325 2346,-273 2222,-273"/>
</g>
<!-- AppComponent -->
<g id="node1" class="node">
<title>AppComponent</title>
<polygon fill="#ffffb3" stroke="#000000" points="4445.9399,-187 4340.0601,-187 4340.0601,-151 4445.9399,-151 4445.9399,-187"/>
<text text-anchor="middle" x="4393" y="-164.8" font-family="Times,serif" font-size="14.00" fill="#000000">AppComponent</text>
</g>
<!-- AppModule -->
<g id="node28" class="node">
<title>AppModule</title>
<polygon fill="#8dd3c7" stroke="#000000" points="2186.6571,-252 2183.6571,-256 2162.6571,-256 2159.6571,-252 2103.3429,-252 2103.3429,-216 2186.6571,-216 2186.6571,-252"/>
<text text-anchor="middle" x="2145" y="-229.8" font-family="Times,serif" font-size="14.00" fill="#000000">AppModule</text>
</g>
<!-- AppComponent&#45;&gt;AppModule -->
<g id="edge1" class="edge">
<title>AppComponent&#45;&gt;AppModule</title>
<path fill="none" stroke="#000000" d="M4393,-187.3228C4393,-210.6602 4393,-248 4393,-248 4393,-248 2196.913,-248 2196.913,-248"/>
<polygon fill="#000000" stroke="#000000" points="2196.913,-244.5001 2186.913,-248 2196.9129,-251.5001 2196.913,-244.5001"/>
</g>
<!-- CreateRecipeComponent -->
<g id="node2" class="node">
<title>CreateRecipeComponent</title>
<polygon fill="#ffffb3" stroke="#000000" points="4322.2352,-187 4165.7648,-187 4165.7648,-151 4322.2352,-151 4322.2352,-187"/>
<text text-anchor="middle" x="4244" y="-164.8" font-family="Times,serif" font-size="14.00" fill="#000000">CreateRecipeComponent</text>
</g>
<!-- CreateRecipeComponent&#45;&gt;AppModule -->
<g id="edge3" class="edge">
<title>CreateRecipeComponent&#45;&gt;AppModule</title>
<path fill="none" stroke="#000000" d="M4244,-187.0109C4244,-209.4852 4244,-245 4244,-245 4244,-245 2196.9283,-245 2196.9283,-245"/>
<polygon fill="#000000" stroke="#000000" points="2196.9284,-241.5001 2186.9283,-245 2196.9283,-248.5001 2196.9284,-241.5001"/>
</g>
<!-- DashboardComponent -->
<g id="node3" class="node">
<title>DashboardComponent</title>
<polygon fill="#ffffb3" stroke="#000000" points="4147.9734,-187 4006.0266,-187 4006.0266,-151 4147.9734,-151 4147.9734,-187"/>
<text text-anchor="middle" x="4077" y="-164.8" font-family="Times,serif" font-size="14.00" fill="#000000">DashboardComponent</text>
</g>
<!-- DashboardComponent&#45;&gt;AppModule -->
<g id="edge4" class="edge">
<title>DashboardComponent&#45;&gt;AppModule</title>
<path fill="none" stroke="#000000" d="M4077,-187.2921C4077,-209.2057 4077,-243 4077,-243 4077,-243 2196.6967,-243 2196.6967,-243"/>
<polygon fill="#000000" stroke="#000000" points="2196.6967,-239.5001 2186.6967,-243 2196.6967,-246.5001 2196.6967,-239.5001"/>
</g>
<!-- FavoriteRecipeComponentComponent -->
<g id="node4" class="node">
<title>FavoriteRecipeComponentComponent</title>
<polygon fill="#ffffb3" stroke="#000000" points="3988.1895,-187 3755.8105,-187 3755.8105,-151 3988.1895,-151 3988.1895,-187"/>
<text text-anchor="middle" x="3872" y="-164.8" font-family="Times,serif" font-size="14.00" fill="#000000">FavoriteRecipeComponentComponent</text>
</g>
<!-- FavoriteRecipeComponentComponent&#45;&gt;AppModule -->
<g id="edge5" class="edge">
<title>FavoriteRecipeComponentComponent&#45;&gt;AppModule</title>
<path fill="none" stroke="#000000" d="M3872,-187.2843C3872,-208.3211 3872,-240 3872,-240 3872,-240 2196.8344,-240 2196.8344,-240"/>
<polygon fill="#000000" stroke="#000000" points="2196.8344,-236.5001 2186.8344,-240 2196.8344,-243.5001 2196.8344,-236.5001"/>
</g>
<!-- FollowerInfoComponent -->
<g id="node5" class="node">
<title>FollowerInfoComponent</title>
<polygon fill="#ffffb3" stroke="#000000" points="3737.6993,-187 3582.3007,-187 3582.3007,-151 3737.6993,-151 3737.6993,-187"/>
<text text-anchor="middle" x="3660" y="-164.8" font-family="Times,serif" font-size="14.00" fill="#000000">FollowerInfoComponent</text>
</g>
<!-- FollowerInfoComponent&#45;&gt;AppModule -->
<g id="edge6" class="edge">
<title>FollowerInfoComponent&#45;&gt;AppModule</title>
<path fill="none" stroke="#000000" d="M3660,-187.1289C3660,-207.5724 3660,-238 3660,-238 3660,-238 2196.7038,-238 2196.7038,-238"/>
<polygon fill="#000000" stroke="#000000" points="2196.7038,-234.5001 2186.7038,-238 2196.7037,-241.5001 2196.7038,-234.5001"/>
</g>
<!-- FollowersComponent -->
<g id="node6" class="node">
<title>FollowersComponent</title>
<polygon fill="#ffffb3" stroke="#000000" points="3564.823,-187 3427.177,-187 3427.177,-151 3564.823,-151 3564.823,-187"/>
<text text-anchor="middle" x="3496" y="-164.8" font-family="Times,serif" font-size="14.00" fill="#000000">FollowersComponent</text>
</g>
<!-- FollowersComponent&#45;&gt;AppModule -->
<g id="edge7" class="edge">
<title>FollowersComponent&#45;&gt;AppModule</title>
<path fill="none" stroke="#000000" d="M3496,-187.308C3496,-207.1455 3496,-236 3496,-236 3496,-236 2196.9142,-236 2196.9142,-236"/>
<polygon fill="#000000" stroke="#000000" points="2196.9142,-232.5001 2186.9142,-236 2196.9142,-239.5001 2196.9142,-232.5001"/>
</g>
<!-- FooterComponent -->
<g id="node7" class="node">
<title>FooterComponent</title>
<polygon fill="#ffffb3" stroke="#000000" points="3408.8809,-187 3291.1191,-187 3291.1191,-151 3408.8809,-151 3408.8809,-187"/>
<text text-anchor="middle" x="3350" y="-164.8" font-family="Times,serif" font-size="14.00" fill="#000000">FooterComponent</text>
</g>
<!-- FooterComponent&#45;&gt;AppModule -->
<g id="edge8" class="edge">
<title>FooterComponent&#45;&gt;AppModule</title>
<path fill="none" stroke="#000000" d="M3350,-187.1686C3350,-206.0898 3350,-233 3350,-233 3350,-233 2196.8288,-233 2196.8288,-233"/>
<polygon fill="#000000" stroke="#000000" points="2196.8288,-229.5001 2186.8288,-233 2196.8287,-236.5001 2196.8288,-229.5001"/>
</g>
<!-- FooterComponentComponent -->
<g id="node8" class="node">
<title>FooterComponentComponent</title>
<polygon fill="#ffffb3" stroke="#000000" points="3272.7133,-187 3089.2867,-187 3089.2867,-151 3272.7133,-151 3272.7133,-187"/>
<text text-anchor="middle" x="3181" y="-164.8" font-family="Times,serif" font-size="14.00" fill="#000000">FooterComponentComponent</text>
</g>
<!-- FooterComponentComponent&#45;&gt;AppModule -->
<g id="edge9" class="edge">
<title>FooterComponentComponent&#45;&gt;AppModule</title>
<path fill="none" stroke="#000000" d="M3181,-187.2667C3181,-205.5552 3181,-231 3181,-231 3181,-231 2196.8956,-231 2196.8956,-231"/>
<polygon fill="#000000" stroke="#000000" points="2196.8956,-227.5001 2186.8956,-231 2196.8955,-234.5001 2196.8956,-227.5001"/>
</g>
<!-- GooglemapsComponent -->
<g id="node9" class="node">
<title>GooglemapsComponent</title>
<polygon fill="#ffffb3" stroke="#000000" points="3071.094,-187 2918.906,-187 2918.906,-151 3071.094,-151 3071.094,-187"/>
<text text-anchor="middle" x="2995" y="-164.8" font-family="Times,serif" font-size="14.00" fill="#000000">GooglemapsComponent</text>
</g>
<!-- GooglemapsComponent&#45;&gt;AppModule -->
<g id="edge10" class="edge">
<title>GooglemapsComponent&#45;&gt;AppModule</title>
<path fill="none" stroke="#000000" d="M2995,-187.0225C2995,-204.3734 2995,-228 2995,-228 2995,-228 2196.8617,-228 2196.8617,-228"/>
<polygon fill="#000000" stroke="#000000" points="2196.8617,-224.5001 2186.8617,-228 2196.8617,-231.5001 2196.8617,-224.5001"/>
</g>
<!-- LoginComponent -->
<g id="node10" class="node">
<title>LoginComponent</title>
<polygon fill="#ffffb3" stroke="#000000" points="2901.2758,-187 2786.7242,-187 2786.7242,-151 2901.2758,-151 2901.2758,-187"/>
<text text-anchor="middle" x="2844" y="-164.8" font-family="Times,serif" font-size="14.00" fill="#000000">LoginComponent</text>
</g>
<!-- LoginComponent&#45;&gt;AppModule -->
<g id="edge11" class="edge">
<title>LoginComponent&#45;&gt;AppModule</title>
<path fill="none" stroke="#000000" d="M2844,-187.0352C2844,-203.7344 2844,-226 2844,-226 2844,-226 2196.8915,-226 2196.8915,-226"/>
<polygon fill="#000000" stroke="#000000" points="2196.8916,-222.5001 2186.8915,-226 2196.8915,-229.5001 2196.8916,-222.5001"/>
</g>
<!-- MyRecipesComponent -->
<g id="node11" class="node">
<title>MyRecipesComponent</title>
<polygon fill="#ffffb3" stroke="#000000" points="2768.5926,-187 2623.4074,-187 2623.4074,-151 2768.5926,-151 2768.5926,-187"/>
<text text-anchor="middle" x="2696" y="-164.8" font-family="Times,serif" font-size="14.00" fill="#000000">MyRecipesComponent</text>
</g>
<!-- MyRecipesComponent&#45;&gt;AppModule -->
<g id="edge12" class="edge">
<title>MyRecipesComponent&#45;&gt;AppModule</title>
<path fill="none" stroke="#000000" d="M2696,-187.0091C2696,-203.0494 2696,-224 2696,-224 2696,-224 2196.8668,-224 2196.8668,-224"/>
<polygon fill="#000000" stroke="#000000" points="2196.8668,-220.5001 2186.8668,-224 2196.8668,-227.5001 2196.8668,-220.5001"/>
</g>
<!-- NotificationMenuComponent -->
<g id="node12" class="node">
<title>NotificationMenuComponent</title>
<polygon fill="#ffffb3" stroke="#000000" points="2605.6414,-187 2424.3586,-187 2424.3586,-151 2605.6414,-151 2605.6414,-187"/>
<text text-anchor="middle" x="2515" y="-164.8" font-family="Times,serif" font-size="14.00" fill="#000000">NotificationMenuComponent</text>
</g>
<!-- NotificationMenuComponent&#45;&gt;AppModule -->
<g id="edge13" class="edge">
<title>NotificationMenuComponent&#45;&gt;AppModule</title>
<path fill="none" stroke="#000000" d="M2515,-187.1871C2515,-202.1824 2515,-221 2515,-221 2515,-221 2196.7245,-221 2196.7245,-221"/>
<polygon fill="#000000" stroke="#000000" points="2196.7245,-217.5001 2186.7245,-221 2196.7244,-224.5001 2196.7245,-217.5001"/>
</g>
<!-- NutrientDialogComponent -->
<g id="node13" class="node">
<title>NutrientDialogComponent</title>
<polygon fill="#ffffb3" stroke="#000000" points="2406.0884,-187 2239.9116,-187 2239.9116,-151 2406.0884,-151 2406.0884,-187"/>
<text text-anchor="middle" x="2323" y="-164.8" font-family="Times,serif" font-size="14.00" fill="#000000">NutrientDialogComponent</text>
</g>
<!-- NutrientDialogComponent&#45;&gt;AppModule -->
<g id="edge14" class="edge">
<title>NutrientDialogComponent&#45;&gt;AppModule</title>
<path fill="none" stroke="#000000" d="M2289.2127,-187.0511C2289.2127,-201.373 2289.2127,-219 2289.2127,-219 2289.2127,-219 2196.7123,-219 2196.7123,-219"/>
<polygon fill="#000000" stroke="#000000" points="2196.7123,-215.5001 2186.7123,-219 2196.7122,-222.5001 2196.7123,-215.5001"/>
</g>
<!-- NutrientDialogTemplate -->
<g id="node14" class="node">
<title>NutrientDialogTemplate</title>
<polygon fill="#ffffb3" stroke="#000000" points="2221.6247,-187 2068.3753,-187 2068.3753,-151 2221.6247,-151 2221.6247,-187"/>
<text text-anchor="middle" x="2145" y="-164.8" font-family="Times,serif" font-size="14.00" fill="#000000">NutrientDialogTemplate</text>
</g>
<!-- NutrientDialogTemplate&#45;&gt;AppModule -->
<g id="edge15" class="edge">
<title>NutrientDialogTemplate&#45;&gt;AppModule</title>
<path fill="none" stroke="#000000" d="M2145,-187.1061C2145,-187.1061 2145,-205.991 2145,-205.991"/>
<polygon fill="#000000" stroke="#000000" points="2141.5001,-205.9909 2145,-215.991 2148.5001,-205.991 2141.5001,-205.9909"/>
</g>
<!-- PrivacyPolicyComponent -->
<g id="node15" class="node">
<title>PrivacyPolicyComponent</title>
<polygon fill="#ffffb3" stroke="#000000" points="2049.8738,-187 1890.1262,-187 1890.1262,-151 2049.8738,-151 2049.8738,-187"/>
<text text-anchor="middle" x="1970" y="-164.8" font-family="Times,serif" font-size="14.00" fill="#000000">PrivacyPolicyComponent</text>
</g>
<!-- PrivacyPolicyComponent&#45;&gt;AppModule -->
<g id="edge16" class="edge">
<title>PrivacyPolicyComponent&#45;&gt;AppModule</title>
<path fill="none" stroke="#000000" d="M1980.963,-187.0511C1980.963,-201.373 1980.963,-219 1980.963,-219 1980.963,-219 2093.1821,-219 2093.1821,-219"/>
<polygon fill="#000000" stroke="#000000" points="2093.1821,-222.5001 2103.1821,-219 2093.1821,-215.5001 2093.1821,-222.5001"/>
</g>
<!-- RecipeDetailsFlyoutComponent -->
<g id="node16" class="node">
<title>RecipeDetailsFlyoutComponent</title>
<polygon fill="#ffffb3" stroke="#000000" points="1872.4198,-187 1675.5802,-187 1675.5802,-151 1872.4198,-151 1872.4198,-187"/>
<text text-anchor="middle" x="1774" y="-164.8" font-family="Times,serif" font-size="14.00" fill="#000000">RecipeDetailsFlyoutComponent</text>
</g>
<!-- RecipeDetailsFlyoutComponent&#45;&gt;AppModule -->
<g id="edge17" class="edge">
<title>RecipeDetailsFlyoutComponent&#45;&gt;AppModule</title>
<path fill="none" stroke="#000000" d="M1774,-187.1871C1774,-202.1824 1774,-221 1774,-221 1774,-221 2093.1628,-221 2093.1628,-221"/>
<polygon fill="#000000" stroke="#000000" points="2093.1628,-224.5001 2103.1628,-221 2093.1627,-217.5001 2093.1628,-224.5001"/>
</g>
<!-- RecipeInfoComponent -->
<g id="node17" class="node">
<title>RecipeInfoComponent</title>
<polygon fill="#ffffb3" stroke="#000000" points="1657.5254,-187 1514.4746,-187 1514.4746,-151 1657.5254,-151 1657.5254,-187"/>
<text text-anchor="middle" x="1586" y="-164.8" font-family="Times,serif" font-size="14.00" fill="#000000">RecipeInfoComponent</text>
</g>
<!-- RecipeInfoComponent&#45;&gt;AppModule -->
<g id="edge18" class="edge">
<title>RecipeInfoComponent&#45;&gt;AppModule</title>
<path fill="none" stroke="#000000" d="M1586,-187.0091C1586,-203.0494 1586,-224 1586,-224 1586,-224 2092.9841,-224 2092.9841,-224"/>
<polygon fill="#000000" stroke="#000000" points="2092.9842,-227.5001 2102.9841,-224 2092.9841,-220.5001 2092.9842,-227.5001"/>
</g>
<!-- RecipeSearchComponent -->
<g id="node18" class="node">
<title>RecipeSearchComponent</title>
<polygon fill="#ffffb3" stroke="#000000" points="1496.2907,-187 1337.7093,-187 1337.7093,-151 1496.2907,-151 1496.2907,-187"/>
<text text-anchor="middle" x="1417" y="-164.8" font-family="Times,serif" font-size="14.00" fill="#000000">RecipeSearchComponent</text>
</g>
<!-- RecipeSearchComponent&#45;&gt;AppModule -->
<g id="edge19" class="edge">
<title>RecipeSearchComponent&#45;&gt;AppModule</title>
<path fill="none" stroke="#000000" d="M1417,-187.0352C1417,-203.7344 1417,-226 1417,-226 1417,-226 2093.2448,-226 2093.2448,-226"/>
<polygon fill="#000000" stroke="#000000" points="2093.2448,-229.5001 2103.2448,-226 2093.2448,-222.5001 2093.2448,-229.5001"/>
</g>
<!-- RecipeSliderComponent -->
<g id="node19" class="node">
<title>RecipeSliderComponent</title>
<polygon fill="#ffffb3" stroke="#000000" points="1319.6428,-187 1166.3572,-187 1166.3572,-151 1319.6428,-151 1319.6428,-187"/>
<text text-anchor="middle" x="1243" y="-164.8" font-family="Times,serif" font-size="14.00" fill="#000000">RecipeSliderComponent</text>
</g>
<!-- RecipeSliderComponent&#45;&gt;AppModule -->
<g id="edge20" class="edge">
<title>RecipeSliderComponent&#45;&gt;AppModule</title>
<path fill="none" stroke="#000000" d="M1243,-187.0225C1243,-204.3734 1243,-228 1243,-228 1243,-228 2093.3037,-228 2093.3037,-228"/>
<polygon fill="#000000" stroke="#000000" points="2093.3037,-231.5001 2103.3037,-228 2093.3037,-224.5001 2093.3037,-231.5001"/>
</g>
<!-- RecipeTileComponent -->
<g id="node20" class="node">
<title>RecipeTileComponent</title>
<polygon fill="#ffffb3" stroke="#000000" points="1148.252,-187 1005.748,-187 1005.748,-151 1148.252,-151 1148.252,-187"/>
<text text-anchor="middle" x="1077" y="-164.8" font-family="Times,serif" font-size="14.00" fill="#000000">RecipeTileComponent</text>
</g>
<!-- RecipeTileComponent&#45;&gt;AppModule -->
<g id="edge21" class="edge">
<title>RecipeTileComponent&#45;&gt;AppModule</title>
<path fill="none" stroke="#000000" d="M1077,-187.2667C1077,-205.5552 1077,-231 1077,-231 1077,-231 2093.1331,-231 2093.1331,-231"/>
<polygon fill="#000000" stroke="#000000" points="2093.1332,-234.5001 2103.1331,-231 2093.1331,-227.5001 2093.1332,-234.5001"/>
</g>
<!-- RegisterComponent -->
<g id="node21" class="node">
<title>RegisterComponent</title>
<polygon fill="#ffffb3" stroke="#000000" points="987.9846,-187 860.0154,-187 860.0154,-151 987.9846,-151 987.9846,-187"/>
<text text-anchor="middle" x="924" y="-164.8" font-family="Times,serif" font-size="14.00" fill="#000000">RegisterComponent</text>
</g>
<!-- RegisterComponent&#45;&gt;AppModule -->
<g id="edge22" class="edge">
<title>RegisterComponent&#45;&gt;AppModule</title>
<path fill="none" stroke="#000000" d="M924,-187.1686C924,-206.0898 924,-233 924,-233 924,-233 2093.3236,-233 2093.3236,-233"/>
<polygon fill="#000000" stroke="#000000" points="2093.3237,-236.5001 2103.3236,-233 2093.3236,-229.5001 2093.3237,-236.5001"/>
</g>
<!-- SafePipe -->
<g id="node22" class="node">
<title>SafePipe</title>
<polygon fill="#ffffb3" stroke="#000000" points="841.7606,-187 776.2394,-187 776.2394,-151 841.7606,-151 841.7606,-187"/>
<text text-anchor="middle" x="809" y="-164.8" font-family="Times,serif" font-size="14.00" fill="#000000">SafePipe</text>
</g>
<!-- SafePipe&#45;&gt;AppModule -->
<g id="edge23" class="edge">
<title>SafePipe&#45;&gt;AppModule</title>
<path fill="none" stroke="#000000" d="M809,-187.308C809,-207.1455 809,-236 809,-236 809,-236 2093.1811,-236 2093.1811,-236"/>
<polygon fill="#000000" stroke="#000000" points="2093.1812,-239.5001 2103.1811,-236 2093.1811,-232.5001 2093.1812,-239.5001"/>
</g>
<!-- SearchComponent -->
<g id="node23" class="node">
<title>SearchComponent</title>
<polygon fill="#ffffb3" stroke="#000000" points="757.9201,-187 638.0799,-187 638.0799,-151 757.9201,-151 757.9201,-187"/>
<text text-anchor="middle" x="698" y="-164.8" font-family="Times,serif" font-size="14.00" fill="#000000">SearchComponent</text>
</g>
<!-- SearchComponent&#45;&gt;AppModule -->
<g id="edge24" class="edge">
<title>SearchComponent&#45;&gt;AppModule</title>
<path fill="none" stroke="#000000" d="M698,-187.1289C698,-207.5724 698,-238 698,-238 698,-238 2093.2546,-238 2093.2546,-238"/>
<polygon fill="#000000" stroke="#000000" points="2093.2547,-241.5001 2103.2546,-238 2093.2546,-234.5001 2093.2547,-241.5001"/>
</g>
<!-- SettingsComponent -->
<g id="node24" class="node">
<title>SettingsComponent</title>
<polygon fill="#ffffb3" stroke="#000000" points="620.4468,-187 493.5532,-187 493.5532,-151 620.4468,-151 620.4468,-187"/>
<text text-anchor="middle" x="557" y="-164.8" font-family="Times,serif" font-size="14.00" fill="#000000">SettingsComponent</text>
</g>
<!-- SettingsComponent&#45;&gt;AppModule -->
<g id="edge25" class="edge">
<title>SettingsComponent&#45;&gt;AppModule</title>
<path fill="none" stroke="#000000" d="M557,-187.2843C557,-208.3211 557,-240 557,-240 557,-240 2093.3411,-240 2093.3411,-240"/>
<polygon fill="#000000" stroke="#000000" points="2093.3411,-243.5001 2103.3411,-240 2093.3411,-236.5001 2093.3411,-243.5001"/>
</g>
<!-- SideNavComponent -->
<g id="node25" class="node">
<title>SideNavComponent</title>
<polygon fill="#ffffb3" stroke="#000000" points="475.5422,-187 346.4578,-187 346.4578,-151 475.5422,-151 475.5422,-187"/>
<text text-anchor="middle" x="411" y="-164.8" font-family="Times,serif" font-size="14.00" fill="#000000">SideNavComponent</text>
</g>
<!-- SideNavComponent&#45;&gt;AppModule -->
<g id="edge26" class="edge">
<title>SideNavComponent&#45;&gt;AppModule</title>
<path fill="none" stroke="#000000" d="M411,-187.2921C411,-209.2057 411,-243 411,-243 411,-243 2092.996,-243 2092.996,-243"/>
<polygon fill="#000000" stroke="#000000" points="2092.9961,-246.5001 2102.996,-243 2092.996,-239.5001 2092.9961,-246.5001"/>
</g>
<!-- SnackBarComponent -->
<g id="node26" class="node">
<title>SnackBarComponent</title>
<polygon fill="#ffffb3" stroke="#000000" points="327.7562,-187 192.2438,-187 192.2438,-151 327.7562,-151 327.7562,-187"/>
<text text-anchor="middle" x="260" y="-164.8" font-family="Times,serif" font-size="14.00" fill="#000000">SnackBarComponent</text>
</g>
<!-- SnackBarComponent&#45;&gt;AppModule -->
<g id="edge27" class="edge">
<title>SnackBarComponent&#45;&gt;AppModule</title>
<path fill="none" stroke="#000000" d="M260,-187.0109C260,-209.4852 260,-245 260,-245 260,-245 2092.9862,-245 2092.9862,-245"/>
<polygon fill="#000000" stroke="#000000" points="2092.9862,-248.5001 2102.9862,-245 2092.9862,-241.5001 2092.9862,-248.5001"/>
</g>
<!-- ViewRecipeComponent -->
<g id="node27" class="node">
<title>ViewRecipeComponent</title>
<polygon fill="#ffffb3" stroke="#000000" points="174.0226,-187 23.9774,-187 23.9774,-151 174.0226,-151 174.0226,-187"/>
<text text-anchor="middle" x="99" y="-164.8" font-family="Times,serif" font-size="14.00" fill="#000000">ViewRecipeComponent</text>
</g>
<!-- ViewRecipeComponent&#45;&gt;AppModule -->
<g id="edge28" class="edge">
<title>ViewRecipeComponent&#45;&gt;AppModule</title>
<path fill="none" stroke="#000000" d="M99,-187.3228C99,-210.6602 99,-248 99,-248 99,-248 2093.2032,-248 2093.2032,-248"/>
<polygon fill="#000000" stroke="#000000" points="2093.2033,-251.5001 2103.2032,-248 2093.2032,-244.5001 2093.2033,-251.5001"/>
</g>
<!-- SearchComponent  -->
<g id="node30" class="node">
<title>SearchComponent </title>
<polygon fill="#fb8072" stroke="#000000" points="2206.4194,-317 2083.5806,-317 2083.5806,-281 2206.4194,-281 2206.4194,-317"/>
<text text-anchor="middle" x="2145" y="-294.8" font-family="Times,serif" font-size="14.00" fill="#000000">SearchComponent </text>
</g>
<!-- AppModule&#45;&gt;SearchComponent  -->
<g id="edge29" class="edge">
<title>AppModule&#45;&gt;SearchComponent </title>
<path fill="none" stroke="#000000" stroke-dasharray="5,2" d="M2145,-252.1061C2145,-252.1061 2145,-270.991 2145,-270.991"/>
<polygon fill="#000000" stroke="#000000" points="2141.5001,-270.9909 2145,-280.991 2148.5001,-270.991 2141.5001,-270.9909"/>
</g>
<!-- ViewRecipeComponent  -->
<g id="node31" class="node">
<title>ViewRecipeComponent </title>
<polygon fill="#fb8072" stroke="#000000" points="2066.0218,-317 1911.9782,-317 1911.9782,-281 2066.0218,-281 2066.0218,-317"/>
<text text-anchor="middle" x="1989" y="-294.8" font-family="Times,serif" font-size="14.00" fill="#000000">ViewRecipeComponent </text>
</g>
<!-- AppModule&#45;&gt;ViewRecipeComponent  -->
<g id="edge30" class="edge">
<title>AppModule&#45;&gt;ViewRecipeComponent </title>
<path fill="none" stroke="#000000" stroke-dasharray="5,2" d="M2103.2712,-250C2080.9365,-250 2057.9739,-250 2057.9739,-250 2057.9739,-250 2057.9739,-270.7542 2057.9739,-270.7542"/>
<polygon fill="#000000" stroke="#000000" points="2054.474,-270.7542 2057.9739,-280.7542 2061.474,-270.7542 2054.474,-270.7542"/>
</g>
<!-- AppComponent  -->
<g id="node32" class="node">
<title>AppComponent </title>
<polygon fill="#80b1d3" stroke="#000000" points="2338.439,-317 2229.561,-317 2229.561,-281 2338.439,-281 2338.439,-317"/>
<text text-anchor="middle" x="2284" y="-294.8" font-family="Times,serif" font-size="14.00" fill="#000000">AppComponent </text>
</g>
<!-- AppModule&#45;&gt;AppComponent  -->
<g id="edge31" class="edge">
<title>AppModule&#45;&gt;AppComponent </title>
<path fill="none" stroke="#000000" stroke-dasharray="1,5" d="M2186.7189,-250C2210.1547,-250 2234.7432,-250 2234.7432,-250 2234.7432,-250 2234.7432,-270.7542 2234.7432,-270.7542"/>
<polygon fill="#000000" stroke="#000000" points="2231.2432,-270.7542 2234.7432,-280.7542 2238.2432,-270.7542 2231.2432,-270.7542"/>
</g>
<!-- AppGlobal -->
<g id="node29" class="node">
<title>AppGlobal</title>
<ellipse fill="#fdb462" stroke="#000000" cx="4392" cy="-104" rx="53.8943" ry="18"/>
<text text-anchor="middle" x="4392" y="-99.8" font-family="Times,serif" font-size="14.00" fill="#000000">AppGlobal</text>
</g>
<!-- AppGlobal&#45;&gt;AppComponent -->
<g id="edge2" class="edge">
<title>AppGlobal&#45;&gt;AppComponent</title>
<path fill="none" stroke="#000000" d="M4393,-122.1061C4393,-122.1061 4393,-140.991 4393,-140.991"/>
<polygon fill="#000000" stroke="#000000" points="4389.5001,-140.9909 4393,-150.991 4396.5001,-140.991 4389.5001,-140.9909"/>
</g>
</g>
</svg>
